# xmcd
#
# Track frame offsets:
#	150
#	13696
#	28999
#	41553
#	53830
#	67012
#	80593
#	95797
#	109132
#	123135
#	135935
#	149125
#	160681
#	172305
#	185053
#	195609
#	208367
#	219208
#	233799
#	244604
#
# Disc length: 3460 seconds
# Revision: 0
# Processed by: cddbd v1.5.2PL0 Copyright (c) Steve Scherf et al.
# Submitted via: dBpowerAMP V12.0
#
DISCID=2d0d8214
DTITLE=Big Joe Turner - The Abosolutely Essential Collection CD1
DYEAR=2016
DGENRE=Blues
TTITLE0=Shake, Rattle And Roll
TTITLE1=Chains Of Love
TTITLE2=The Chill Is On
TTITLE3=Goin' Away (With Pete Johnson)
TTITLE4=Roll 'Em Pete (With Pete Johnson)
TTITLE5=Cherry Red (With Pete Johnson)
TTITLE6=How Long, How Long Blues
TTITLE7=Piney Brown Blues (With Pete Johnson)
TTITLE8=My Gal's A Jockey
TTITLE9=Sally Zu-Zazz
TTITLE10=S.K. Blues (Part 1) (With Pete Johnson)
TTITLE11=Low Down DOG
TTITLE12=Wine O-BabyBoogie
TTITLE13=Still In The Dark
TTITLE14=Just A Travellin' Man
TTITLE15=Adam Bit The Apple
TTITLE16=Jumpin' Tonight (Midnight Rockin')
TTITLE17=After My Laughter Came To Tears
TTITLE18=Bump Miss Susie
TTITLE19=I'll Never Stop Loving You
EXTD=
EXTT0=
EXTT1=
EXTT2=
EXTT3=
EXTT4=
EXTT5=
EXTT6=
EXTT7=
EXTT8=
EXTT9=
EXTT10=
EXTT11=
EXTT12=
EXTT13=
EXTT14=
EXTT15=
EXTT16=
EXTT17=
EXTT18=
EXTT19=
PLAYORDER=
